<svg width="22" height="16" viewBox="0 0 22 16" fill="none" xmlns="http://www.w3.org/2000/svg">
<path d="M22 14.25C22 14.941 21.4648 15.5 20.806 15.5H11.194C10.8773 15.5 10.5736 15.3683 10.3497 15.1339C10.1258 14.8995 10 14.5815 10 14.25C10 13.9185 10.1258 13.6005 10.3497 13.3661C10.5736 13.1317 10.8773 13 11.194 13H20.806C21.466 13 22 13.559 22 14.25V14.25Z" fill="white"/>
<path d="M22 7.75C22 8.44095 21.5094 9 20.9055 9H1.0945C0.80422 9 0.52583 8.8683 0.320572 8.63388C0.115313 8.39946 0 8.08152 0 7.75C0 7.41848 0.115313 7.10054 0.320572 6.86612C0.52583 6.6317 0.80422 6.5 1.0945 6.5H20.9055C21.5105 6.5 22 7.0603 22 7.75V7.75Z" fill="white"/>
<path d="M20.8629 2.5C21.1644 2.5 21.4537 2.3683 21.6669 2.13388C21.8802 1.89946 22 1.58152 22 1.25C22 0.918479 21.8802 0.600537 21.6669 0.366116C21.4537 0.131696 21.1644 9.88008e-09 20.8629 0H7.13714C6.98781 -4.89212e-09 6.83994 0.0323322 6.70198 0.0951506C6.56401 0.157969 6.43865 0.250043 6.33306 0.366116C6.22747 0.48219 6.14371 0.619989 6.08656 0.771646C6.02941 0.923303 6 1.08585 6 1.25C6 1.41415 6.02941 1.5767 6.08656 1.72835C6.14371 1.88001 6.22747 2.01781 6.33306 2.13388C6.43865 2.24996 6.56401 2.34203 6.70198 2.40485C6.83994 2.46767 6.98781 2.5 7.13714 2.5H20.8629Z" fill="white"/>
</svg>
