<svg width="382" height="62" viewBox="0 0 382 62" fill="none" xmlns="http://www.w3.org/2000/svg">
<path d="M0.171875 61V3.89062H15.6016V48.5391H37.5938V61H0.171875ZM67.2031 61.7812C59.8333 61.7812 54.1042 59.8281 50.0156 55.9219C45.9531 51.9896 43.9219 46.4036 43.9219 39.1641C43.9219 31.6901 45.8099 25.9609 49.5859 21.9766C53.362 17.9661 58.7526 15.9609 65.7578 15.9609C72.4245 15.9609 77.5677 17.7057 81.1875 21.1953C84.8333 24.6589 86.6562 29.6589 86.6562 36.1953V42.9922H59.3516C59.4557 45.4661 60.3542 47.4062 62.0469 48.8125C63.7656 50.2188 66.0964 50.9219 69.0391 50.9219C71.7214 50.9219 74.1823 50.6745 76.4219 50.1797C78.6875 49.6589 81.1354 48.7865 83.7656 47.5625V58.5391C81.3698 59.763 78.8958 60.6094 76.3438 61.0781C73.7917 61.5469 70.7448 61.7812 67.2031 61.7812ZM66.3047 26.3516C64.5078 26.3516 62.9974 26.9245 61.7734 28.0703C60.5755 29.1901 59.8724 30.9609 59.6641 33.3828H72.7891C72.737 31.2474 72.125 29.5417 70.9531 28.2656C69.8073 26.9896 68.2578 26.3516 66.3047 26.3516ZM137.555 38.7734C137.555 46.013 135.602 51.6641 131.695 55.7266C127.815 59.763 122.372 61.7812 115.367 61.7812C108.648 61.7812 103.297 59.7109 99.3125 55.5703C95.3542 51.4297 93.375 45.8307 93.375 38.7734C93.375 31.5599 95.3151 25.9609 99.1953 21.9766C103.102 17.9661 108.57 15.9609 115.602 15.9609C119.951 15.9609 123.792 16.8854 127.125 18.7344C130.458 20.5833 133.023 23.2396 134.82 26.7031C136.643 30.1406 137.555 34.1641 137.555 38.7734ZM108.883 38.7734C108.883 42.5755 109.391 45.4792 110.406 47.4844C111.422 49.4635 113.128 50.4531 115.523 50.4531C117.893 50.4531 119.56 49.4635 120.523 47.4844C121.513 45.4792 122.008 42.5755 122.008 38.7734C122.008 34.9974 121.513 32.1458 120.523 30.2188C119.534 28.2917 117.841 27.3281 115.445 27.3281C113.102 27.3281 111.422 28.2917 110.406 30.2188C109.391 32.1198 108.883 34.9714 108.883 38.7734ZM174.234 61V36.8594C174.234 33.9167 173.805 31.7031 172.945 30.2188C172.112 28.7083 170.758 27.9531 168.883 27.9531C166.305 27.9531 164.443 28.9818 163.297 31.0391C162.151 33.0964 161.578 36.625 161.578 41.625V61H146.305V16.7422H157.828L159.742 22.2109H160.641C161.943 20.1276 163.74 18.5651 166.031 17.5234C168.349 16.4818 171.005 15.9609 174 15.9609C178.896 15.9609 182.698 17.3802 185.406 20.2188C188.141 23.0573 189.508 27.0547 189.508 32.2109V61H174.234ZM228.766 61L225.836 55.1406H225.523C223.466 57.6927 221.37 59.4375 219.234 60.375C217.099 61.3125 214.339 61.7812 210.953 61.7812C206.786 61.7812 203.505 60.5312 201.109 58.0312C198.714 55.5312 197.516 52.0156 197.516 47.4844C197.516 42.7708 199.156 39.2682 202.438 36.9766C205.719 34.6589 210.471 33.3568 216.695 33.0703L224.078 32.8359V32.2109C224.078 28.5651 222.281 26.7422 218.688 26.7422C215.458 26.7422 211.357 27.8359 206.383 30.0234L201.969 19.9453C207.125 17.2891 213.635 15.9609 221.5 15.9609C227.177 15.9609 231.565 17.3672 234.664 20.1797C237.789 22.9922 239.352 26.9245 239.352 31.9766V61H228.766ZM217.438 51C219.286 51 220.862 50.4141 222.164 49.2422C223.492 48.0703 224.156 46.5469 224.156 44.6719V41.2344L220.641 41.3906C215.615 41.5729 213.102 43.4219 213.102 46.9375C213.102 49.6458 214.547 51 217.438 51ZM276.461 15.9609C277.789 15.9609 279.052 16.0651 280.25 16.2734L281.109 16.4297L279.742 30.8438C278.492 30.5312 276.76 30.375 274.547 30.375C271.214 30.375 268.792 31.1432 267.281 32.6797C265.771 34.1901 265.016 36.3776 265.016 39.2422V61H249.742V16.7422H261.109L263.492 23.8125H264.234C265.51 21.4688 267.281 19.5807 269.547 18.1484C271.839 16.6901 274.143 15.9609 276.461 15.9609ZM301.07 61.7812C297.919 61.7812 295.159 60.8828 292.789 59.0859C290.445 57.2891 288.622 54.6458 287.32 51.1562C286.044 47.6667 285.406 43.5911 285.406 38.9297C285.406 31.7422 286.852 26.1172 289.742 22.0547C292.633 17.9922 296.604 15.9609 301.656 15.9609C304.13 15.9609 306.292 16.4557 308.141 17.4453C310.016 18.4349 311.721 20.1016 313.258 22.4453H313.57C313.076 18.9818 312.828 15.5182 312.828 12.0547V0.21875H328.219V61H316.695L313.414 55.4141H312.828C310.198 59.6589 306.279 61.7812 301.07 61.7812ZM307.32 49.7109C309.768 49.7109 311.487 48.9427 312.477 47.4062C313.492 45.8698 314.039 43.5 314.117 40.2969V39.0859C314.117 35.1797 313.557 32.4062 312.438 30.7656C311.318 29.099 309.56 28.2656 307.164 28.2656C305.159 28.2656 303.596 29.2161 302.477 31.1172C301.383 32.9922 300.836 35.6745 300.836 39.1641C300.836 42.6016 301.396 45.2188 302.516 47.0156C303.635 48.8125 305.237 49.7109 307.32 49.7109ZM381.07 38.7734C381.07 46.013 379.117 51.6641 375.211 55.7266C371.331 59.763 365.888 61.7812 358.883 61.7812C352.164 61.7812 346.812 59.7109 342.828 55.5703C338.87 51.4297 336.891 45.8307 336.891 38.7734C336.891 31.5599 338.831 25.9609 342.711 21.9766C346.617 17.9661 352.086 15.9609 359.117 15.9609C363.466 15.9609 367.307 16.8854 370.641 18.7344C373.974 20.5833 376.539 23.2396 378.336 26.7031C380.159 30.1406 381.07 34.1641 381.07 38.7734ZM352.398 38.7734C352.398 42.5755 352.906 45.4792 353.922 47.4844C354.938 49.4635 356.643 50.4531 359.039 50.4531C361.409 50.4531 363.076 49.4635 364.039 47.4844C365.029 45.4792 365.523 42.5755 365.523 38.7734C365.523 34.9974 365.029 32.1458 364.039 30.2188C363.049 28.2917 361.357 27.3281 358.961 27.3281C356.617 27.3281 354.938 28.2917 353.922 30.2188C352.906 32.1198 352.398 34.9714 352.398 38.7734Z" fill="black"/>
</svg>
