<svg width="130" height="59" viewBox="0 0 130 59" fill="none" xmlns="http://www.w3.org/2000/svg">
<path d="M16.72 49.12H35.12V58H5.52V2.16H16.72V49.12ZM78.6388 34.88C78.6388 36.48 78.5321 37.92 78.3188 39.2H45.9188C46.1854 42.4 47.3054 44.9067 49.2788 46.72C51.2521 48.5333 53.6788 49.44 56.5588 49.44C60.7188 49.44 63.6788 47.6533 65.4388 44.08H77.5188C76.2388 48.3467 73.7854 51.8667 70.1588 54.64C66.5321 57.36 62.0788 58.72 56.7988 58.72C52.5321 58.72 48.6921 57.7867 45.2788 55.92C41.9188 54 39.2788 51.3067 37.3588 47.84C35.4921 44.3733 34.5588 40.3733 34.5588 35.84C34.5588 31.2533 35.4921 27.2267 37.3588 23.76C39.2254 20.2933 41.8388 17.6267 45.1988 15.76C48.5588 13.8933 52.4254 12.96 56.7988 12.96C61.0121 12.96 64.7721 13.8667 68.0788 15.68C71.4388 17.4933 74.0254 20.08 75.8388 23.44C77.7054 26.7467 78.6388 30.56 78.6388 34.88ZM67.0388 31.68C66.9854 28.8 65.9454 26.5067 63.9188 24.8C61.8921 23.04 59.4121 22.16 56.4788 22.16C53.7054 22.16 51.3588 23.0133 49.4388 24.72C47.5721 26.3733 46.4254 28.6933 45.9988 31.68H67.0388Z" fill="white"/>
<path d="M103.2 58.72C98.9333 58.72 95.0933 57.7867 91.68 55.92C88.2667 54 85.5733 51.3067 83.6 47.84C81.68 44.3733 80.72 40.3733 80.72 35.84C80.72 31.3067 81.7067 27.3067 83.68 23.84C85.7067 20.3733 88.4533 17.7067 91.92 15.84C95.3867 13.92 99.2533 12.96 103.52 12.96C107.787 12.96 111.653 13.92 115.12 15.84C118.587 17.7067 121.307 20.3733 123.28 23.84C125.307 27.3067 126.32 31.3067 126.32 35.84C126.32 40.3733 125.28 44.3733 123.2 47.84C121.173 51.3067 118.4 54 114.88 55.92C111.413 57.7867 107.52 58.72 103.2 58.72ZM103.2 48.96C105.227 48.96 107.12 48.48 108.88 47.52C110.693 46.5067 112.133 45.0133 113.2 43.04C114.267 41.0667 114.8 38.6667 114.8 35.84C114.8 31.6267 113.68 28.4 111.44 26.16C109.253 23.8667 106.56 22.72 103.36 22.72C100.16 22.72 97.4667 23.8667 95.28 26.16C93.1467 28.4 92.08 31.6267 92.08 35.84C92.08 40.0533 93.12 43.3067 95.2 45.6C97.3333 47.84 100 48.96 103.2 48.96Z" fill="white"/>
</svg>
