<svg width="388" height="61" viewBox="0 0 388 61" fill="none" xmlns="http://www.w3.org/2000/svg">
<path d="M17.76 46.56H34.88V60H5.96046e-08V3.36H17.76V46.56ZM84.1488 37.04C84.1488 38.2667 84.0688 39.44 83.9088 40.56H55.3488C55.6154 44.4533 57.2421 46.4 60.2288 46.4C62.1488 46.4 63.5354 45.52 64.3888 43.76H83.1888C82.5488 46.96 81.1888 49.84 79.1088 52.4C77.0821 54.9067 74.4954 56.9067 71.3488 58.4C68.2554 59.84 64.8421 60.56 61.1088 60.56C56.6288 60.56 52.6288 59.6267 49.1088 57.76C45.6421 55.8933 42.9221 53.2267 40.9488 49.76C39.0288 46.24 38.0688 42.1333 38.0688 37.44C38.0688 32.7467 39.0288 28.6667 40.9488 25.2C42.9221 21.68 45.6421 18.9867 49.1088 17.12C52.6288 15.2533 56.6288 14.32 61.1088 14.32C65.5888 14.32 69.5621 15.2533 73.0288 17.12C76.5488 18.9333 79.2688 21.5467 81.1888 24.96C83.1621 28.3733 84.1488 32.4 84.1488 37.04ZM66.1488 32.8C66.1488 31.3067 65.6688 30.1867 64.7088 29.44C63.7488 28.64 62.5488 28.24 61.1088 28.24C57.9621 28.24 56.1221 29.76 55.5888 32.8H66.1488ZM111.206 60.56C106.672 60.56 102.592 59.6267 98.9656 57.76C95.339 55.8933 92.4856 53.2267 90.4056 49.76C88.379 46.24 87.3656 42.1333 87.3656 37.44C87.3656 32.7467 88.379 28.6667 90.4056 25.2C92.4856 21.68 95.339 18.9867 98.9656 17.12C102.592 15.2533 106.672 14.32 111.206 14.32C115.739 14.32 119.819 15.2533 123.446 17.12C127.072 18.9867 129.899 21.68 131.926 25.2C134.006 28.6667 135.046 32.7467 135.046 37.44C135.046 42.1333 134.006 46.24 131.926 49.76C129.899 53.2267 127.072 55.8933 123.446 57.76C119.819 59.6267 115.739 60.56 111.206 60.56ZM111.206 45.2C112.859 45.2 114.246 44.56 115.366 43.28C116.486 41.9467 117.046 40 117.046 37.44C117.046 34.88 116.486 32.96 115.366 31.68C114.246 30.3467 112.859 29.68 111.206 29.68C109.552 29.68 108.166 30.3467 107.046 31.68C105.926 32.96 105.366 34.88 105.366 37.44C105.366 40 105.899 41.9467 106.966 43.28C108.086 44.56 109.499 45.2 111.206 45.2ZM172.225 14.56C177.398 14.56 181.425 16.2933 184.305 19.76C187.238 23.2267 188.705 27.92 188.705 33.84V60H171.025V36.08C171.025 33.9467 170.438 32.2667 169.265 31.04C168.145 29.76 166.625 29.12 164.705 29.12C162.732 29.12 161.185 29.76 160.065 31.04C158.945 32.2667 158.385 33.9467 158.385 36.08V60H140.625V14.88H158.385V21.76C159.772 19.6267 161.612 17.8933 163.905 16.56C166.252 15.2267 169.025 14.56 172.225 14.56ZM194.006 37.44C194.006 32.6933 194.806 28.5867 196.406 25.12C198.06 21.6 200.3 18.9333 203.126 17.12C205.953 15.2533 209.126 14.32 212.646 14.32C215.58 14.32 218.113 14.9333 220.246 16.16C222.38 17.3333 224.006 18.96 225.126 21.04V14.88H242.806V60H225.126V53.84C224.006 55.92 222.38 57.5733 220.246 58.8C218.113 59.9733 215.58 60.56 212.646 60.56C209.126 60.56 205.953 59.6533 203.126 57.84C200.3 55.9733 198.06 53.3067 196.406 49.84C194.806 46.32 194.006 42.1867 194.006 37.44ZM225.126 37.44C225.126 35.04 224.513 33.1733 223.286 31.84C222.06 30.5067 220.486 29.84 218.566 29.84C216.646 29.84 215.073 30.5067 213.846 31.84C212.62 33.1733 212.006 35.04 212.006 37.44C212.006 39.84 212.62 41.7067 213.846 43.04C215.073 44.3733 216.646 45.04 218.566 45.04C220.486 45.04 222.06 44.3733 223.286 43.04C224.513 41.7067 225.126 39.84 225.126 37.44ZM268.541 23.2C270.355 20.5867 272.568 18.5067 275.181 16.96C277.795 15.36 280.515 14.56 283.341 14.56V33.52H278.301C274.941 33.52 272.461 34.1067 270.861 35.28C269.315 36.4533 268.541 38.5333 268.541 41.52V60H250.781V14.88H268.541V23.2ZM285.725 37.44C285.725 32.6933 286.525 28.5867 288.125 25.12C289.778 21.6 292.018 18.9333 294.845 17.12C297.672 15.2533 300.845 14.32 304.365 14.32C307.298 14.32 309.805 14.9333 311.885 16.16C314.018 17.3333 315.645 18.96 316.765 21.04V0.799999H334.525V60H316.765V53.84C315.645 55.92 314.018 57.5733 311.885 58.8C309.805 59.9733 307.298 60.56 304.365 60.56C300.845 60.56 297.672 59.6533 294.845 57.84C292.018 55.9733 289.778 53.3067 288.125 49.84C286.525 46.32 285.725 42.1867 285.725 37.44ZM316.845 37.44C316.845 35.04 316.232 33.1733 315.005 31.84C313.778 30.5067 312.205 29.84 310.285 29.84C308.365 29.84 306.792 30.5067 305.565 31.84C304.338 33.1733 303.725 35.04 303.725 37.44C303.725 39.84 304.338 41.7067 305.565 43.04C306.792 44.3733 308.365 45.04 310.285 45.04C312.205 45.04 313.778 44.3733 315.005 43.04C316.232 41.7067 316.845 39.84 316.845 37.44ZM363.94 60.56C359.407 60.56 355.327 59.6267 351.7 57.76C348.073 55.8933 345.22 53.2267 343.14 49.76C341.113 46.24 340.1 42.1333 340.1 37.44C340.1 32.7467 341.113 28.6667 343.14 25.2C345.22 21.68 348.073 18.9867 351.7 17.12C355.327 15.2533 359.407 14.32 363.94 14.32C368.473 14.32 372.553 15.2533 376.18 17.12C379.807 18.9867 382.633 21.68 384.66 25.2C386.74 28.6667 387.78 32.7467 387.78 37.44C387.78 42.1333 386.74 46.24 384.66 49.76C382.633 53.2267 379.807 55.8933 376.18 57.76C372.553 59.6267 368.473 60.56 363.94 60.56ZM363.94 45.2C365.593 45.2 366.98 44.56 368.1 43.28C369.22 41.9467 369.78 40 369.78 37.44C369.78 34.88 369.22 32.96 368.1 31.68C366.98 30.3467 365.593 29.68 363.94 29.68C362.287 29.68 360.9 30.3467 359.78 31.68C358.66 32.96 358.1 34.88 358.1 37.44C358.1 40 358.633 41.9467 359.7 43.28C360.82 44.56 362.233 45.2 363.94 45.2Z" fill="white"/>
</svg>
